<svg width="300" height="305" viewBox="0 0 300 305" fill="none" xmlns="http://www.w3.org/2000/svg">
<g clip-path="url(#clip0_64_106)">
<path d="M294.274 152.844C294.274 233.584 229.67 298.905 150.137 298.905C70.6042 298.905 6 233.584 6 152.844C6 72.1035 70.6042 6.78174 150.137 6.78174C229.67 6.78174 294.274 72.1035 294.274 152.844Z" stroke="url(#paint0_linear_64_106)" stroke-width="12"/>
<g filter="url(#filter0_bd_64_106)">
<path d="M163.536 86.0137C162.859 86.4368 162.14 86.6908 161.378 86.7754C160.616 86.86 159.812 86.987 158.966 87.1562C158.204 87.2409 157.485 87.4102 156.808 87.6641C156.131 87.918 155.623 88.3835 155.284 89.0605C154.438 88.2142 153.507 87.4948 152.491 86.9023C151.476 86.3099 150.46 85.6751 149.444 84.998C148.598 85.252 147.752 85.5905 146.905 86.0137C146.059 86.4368 145.213 86.6484 144.366 86.6484C143.774 86.6484 143.181 86.4368 142.589 86.0137C141.912 86.5215 141.108 86.9447 140.177 87.2832C139.33 87.5371 138.399 87.791 137.384 88.0449C136.453 88.2988 135.564 88.6374 134.718 89.0605C133.956 89.4837 133.406 90.1185 133.067 90.9648C132.898 90.5417 132.475 90.4147 131.798 90.584C131.205 90.7533 130.867 90.5417 130.782 89.9492C128.074 90.8802 125.323 91.6842 122.53 92.3613C119.737 93.0384 116.944 93.7578 114.151 94.5195C111.358 95.2812 108.608 96.1276 105.899 97.0586C103.191 97.9896 100.567 99.1322 98.0283 100.486C97.9437 100.571 97.9014 100.698 97.9014 100.867C97.9014 101.714 98.0283 102.518 98.2822 103.279C98.5361 104.041 98.7477 104.76 98.917 105.438C97.3936 110.6 96.3779 115.848 95.8701 121.18C95.3623 126.512 94.6852 131.759 93.8389 136.922V137.43C93.8389 137.853 94.0081 138.191 94.3467 138.445C94.6852 138.615 94.8545 138.953 94.8545 139.461L94.7275 139.715C94.3044 139.969 94.0081 140.35 93.8389 140.857C93.6696 141.281 93.585 141.746 93.585 142.254C93.585 142.592 93.6696 143.1 93.8389 143.777C92.4001 148.602 91.4268 153.51 90.9189 158.504C90.4958 163.497 89.9456 168.491 89.2686 173.484L88.126 181.863C87.9567 182.371 87.7874 182.879 87.6182 183.387C87.5335 183.81 87.4912 184.275 87.4912 184.783C87.4912 187.492 87.6605 190.158 87.999 192.781C88.4222 195.32 88.5492 197.944 88.3799 200.652C89.1416 201.837 89.5225 202.98 89.5225 204.08C89.5225 204.503 89.4801 204.926 89.3955 205.35C89.3955 205.773 89.3532 206.196 89.2686 206.619C90.3688 207.719 91.6383 208.481 93.0771 208.904C94.6006 209.412 95.9548 210.174 97.1396 211.189V211.697C97.1396 212.544 97.0127 213.348 96.7588 214.109C96.5049 214.956 96.2933 215.802 96.124 216.648C95.9548 217.326 95.7432 218.299 95.4893 219.568C95.32 220.838 95.0661 221.684 94.7275 222.107C94.3044 222.7 93.6696 223.208 92.8232 223.631C92.0615 224.139 91.2998 224.393 90.5381 224.393C90.2842 224.393 89.9033 224.266 89.3955 224.012C88.9723 223.758 88.6338 223.546 88.3799 223.377C87.9567 223.377 87.4066 223.589 86.7295 224.012C86.0524 224.435 85.3753 224.646 84.6982 224.646C84.3597 224.646 84.0635 224.604 83.8096 224.52C83.5557 224.52 83.2594 224.435 82.9209 224.266C82.5824 223.419 82.0745 222.658 81.3975 221.98C80.805 221.388 80.0856 220.796 79.2393 220.203C79.3239 219.018 79.1123 218.13 78.6045 217.537C78.0967 216.945 77.5889 216.183 77.0811 215.252C76.9118 214.067 76.7425 212.713 76.5732 211.189C76.4886 209.666 75.8538 208.566 74.6689 207.889C75.0921 207.296 75.3037 206.492 75.3037 205.477C75.3037 205.053 75.2191 204.588 75.0498 204.08C74.9652 203.572 74.7113 203.191 74.2881 202.938V202.684C74.2035 202.26 74.3304 201.964 74.6689 201.795C75.0921 201.541 75.3037 201.202 75.3037 200.779V200.271C74.7113 197.563 74.415 194.728 74.415 191.766C74.415 188.973 74.4997 186.222 74.6689 183.514C74.8382 180.721 74.8382 177.928 74.6689 175.135C75.1768 174.712 75.5576 174.035 75.8115 173.104C76.1501 172.173 76.404 171.157 76.5732 170.057C76.7425 168.956 76.8271 167.898 76.8271 166.883C76.9118 165.783 76.9964 164.894 77.0811 164.217C77.5042 159.393 78.1813 154.653 79.1123 149.998C80.0433 145.258 80.5934 140.434 80.7627 135.525C81.1859 134.848 81.4398 133.96 81.5244 132.859C81.609 131.759 81.6514 130.617 81.6514 129.432C81.6514 128.162 81.736 126.935 81.9053 125.75C82.0745 124.565 82.4131 123.549 82.9209 122.703C82.9209 120.333 83.1325 117.964 83.5557 115.594C83.9788 113.139 84.1904 110.685 84.1904 108.23C84.1904 107.046 84.0635 105.818 83.8096 104.549C82.9632 104.21 82.2015 104.041 81.5244 104.041C80.5934 104.041 79.6201 104.253 78.6045 104.676C77.6735 105.014 76.9964 105.564 76.5732 106.326C74.7113 106.411 72.8916 106.707 71.1143 107.215C69.3369 107.723 67.5596 107.977 65.7822 107.977H64.5127C64.1742 107.977 63.7933 107.934 63.3701 107.85C62.7777 108.104 62.1429 108.315 61.4658 108.484C60.8734 108.654 60.6195 109.161 60.7041 110.008C58.0804 110.262 55.499 110.812 52.96 111.658C50.5055 112.505 48.0511 113.436 45.5967 114.451C43.1423 115.382 40.6878 116.271 38.2334 117.117C35.6943 117.964 33.113 118.514 30.4893 118.768C29.5583 119.191 28.9658 120.079 28.7119 121.434C26.8499 121.264 25.2842 120.799 24.0146 120.037C22.7451 119.275 21.264 118.556 19.5713 117.879C19.0635 116.102 18.8096 114.409 18.8096 112.801C18.8096 110.685 19.2327 108.654 20.0791 106.707C20.9255 104.76 22.2796 103.322 24.1416 102.391C24.5648 102.475 24.9456 102.56 25.2842 102.645C25.6227 102.645 26.0036 102.645 26.4268 102.645C27.7809 102.645 29.1351 102.391 30.4893 101.883C31.8434 101.375 33.2399 101.121 34.6787 101.121C35.1019 101.121 35.5674 101.248 36.0752 101.502C36.6676 101.163 37.4294 100.91 38.3604 100.74C39.2067 100.486 40.0107 100.275 40.7725 100.105C41.6188 99.8516 42.3805 99.513 43.0576 99.0898C43.7347 98.6667 44.1579 98.0742 44.3271 97.3125C44.7503 97.651 45.2158 97.8626 45.7236 97.9473C46.2314 98.0319 46.7393 98.0742 47.2471 98.0742C48.3473 98.0742 49.4899 97.8626 50.6748 97.4395C51.8597 97.0163 52.7907 96.3392 53.4678 95.4082C54.0602 96.0853 54.9066 96.4238 56.0068 96.4238C57.1917 96.4238 58.3343 96.1276 59.4346 95.5352C60.6195 94.8581 61.762 94.5195 62.8623 94.5195C63.7087 94.5195 64.3434 94.8158 64.7666 95.4082C65.6976 94.6465 66.7979 94.054 68.0674 93.6309C69.3369 93.2077 70.6064 92.8268 71.876 92.4883C73.2301 92.1497 74.4574 91.7689 75.5576 91.3457C76.7425 90.9225 77.6735 90.3301 78.3506 89.5684C78.7738 89.653 79.4508 89.6953 80.3818 89.6953C81.8206 89.6953 83.1748 89.526 84.4443 89.1875C85.7985 88.7643 87.1527 88.3835 88.5068 88.0449L91.1729 87.791C91.8499 87.7064 92.4424 87.4948 92.9502 87.1562C93.5426 86.8177 94.1351 86.5215 94.7275 86.2676C95.32 86.0137 95.9124 85.8021 96.5049 85.6328C97.182 85.4635 97.986 85.4212 98.917 85.5059C100.948 84.4056 103.106 83.5592 105.392 82.9668C107.677 82.3743 110.004 81.8665 112.374 81.4434C114.744 80.9355 117.071 80.3854 119.356 79.793C121.642 79.1159 123.8 78.1426 125.831 76.873H126.212C127.905 76.873 129.555 76.5768 131.163 75.9844C132.856 75.3919 134.422 74.5879 135.86 73.5723C136.114 73.6569 136.368 73.6992 136.622 73.6992H137.511C139.881 73.6992 142.166 73.3607 144.366 72.6836C146.651 72.0065 149.021 71.668 151.476 71.668C152.914 71.668 154.057 71.8796 154.903 72.3027C155.75 72.6413 156.511 73.1068 157.188 73.6992C157.866 74.207 158.585 74.7148 159.347 75.2227C160.108 75.7305 161.082 76.1113 162.267 76.3652C163.028 77.804 163.409 79.3698 163.409 81.0625C163.409 82.6706 163.451 84.321 163.536 86.0137ZM258.751 239.881C258.751 240.643 258.455 241.32 257.862 241.912C257.354 242.505 256.72 242.97 255.958 243.309C255.196 243.732 254.392 244.113 253.546 244.451C252.784 244.79 252.107 245.086 251.515 245.34C250.584 244.832 249.61 244.493 248.595 244.324C247.664 244.155 246.817 243.732 246.056 243.055H245.167C243.813 243.055 242.755 243.224 241.993 243.562C240.808 243.139 239.835 242.505 239.073 241.658C238.312 240.896 237.592 240.05 236.915 239.119C236.238 238.273 235.561 237.426 234.884 236.58C234.207 235.734 233.36 235.014 232.345 234.422C230.821 230.19 229.467 225.916 228.282 221.6C227.097 217.283 226.209 212.882 225.616 208.396C225.785 207.973 225.912 207.508 225.997 207C226.082 206.492 226.124 206.027 226.124 205.604C226.124 205.265 226.039 204.926 225.87 204.588C225.785 204.165 225.532 203.911 225.108 203.826C225.532 203.149 225.785 202.387 225.87 201.541C226.039 200.61 226.124 199.764 226.124 199.002C226.124 197.309 225.955 195.913 225.616 194.812C226.124 194.389 226.336 193.712 226.251 192.781C226.166 191.766 226.378 191.046 226.886 190.623C226.463 189.184 226.251 187.788 226.251 186.434C226.251 184.572 226.463 182.752 226.886 180.975C227.394 179.197 227.647 177.378 227.647 175.516C227.647 175.092 227.605 174.669 227.521 174.246C227.521 173.823 227.478 173.4 227.394 172.977C227.817 171.622 228.198 170.268 228.536 168.914C228.959 167.475 229.171 166.036 229.171 164.598C229.171 163.582 229.002 162.736 228.663 162.059C229.763 158.165 230.525 154.314 230.948 150.506C231.456 146.613 231.922 142.677 232.345 138.699C232.26 138.53 232.175 138.403 232.091 138.318C232.006 138.234 231.964 138.107 231.964 137.938C231.964 137.514 232.175 137.176 232.599 136.922C233.106 136.668 233.318 136.202 233.233 135.525C232.218 136.541 231.371 137.726 230.694 139.08C230.102 140.434 229.509 141.788 228.917 143.143C228.409 144.497 227.817 145.851 227.14 147.205C226.547 148.475 225.743 149.617 224.728 150.633C224.643 151.564 224.347 152.452 223.839 153.299C223.416 154.145 223.204 155.076 223.204 156.092C223.119 156.092 223.035 156.092 222.95 156.092C222.866 156.007 222.739 155.965 222.569 155.965C222.231 155.965 221.977 156.176 221.808 156.6C221.723 157.023 221.469 157.15 221.046 156.98C219.099 160.789 216.941 164.513 214.571 168.152C212.286 171.792 209.282 174.712 205.558 176.912C204.881 176.658 204.246 176.531 203.653 176.531C202.553 176.531 201.453 176.87 200.353 177.547C199.337 178.139 198.66 178.436 198.321 178.436C197.475 178.436 196.417 178.012 195.147 177.166C193.963 176.235 192.735 175.727 191.466 175.643C190.112 174.712 188.969 173.781 188.038 172.85C187.192 171.834 185.88 171.242 184.103 171.072C182.918 169.295 181.733 167.602 180.548 165.994C179.448 164.386 178.347 162.82 177.247 161.297C176.231 159.689 175.3 157.996 174.454 156.219C173.692 154.441 173.1 152.452 172.677 150.252C172.761 150.083 172.804 149.913 172.804 149.744C172.804 149.236 172.55 149.025 172.042 149.109C171.619 149.194 171.407 148.94 171.407 148.348V147.459C171.407 146.782 171.28 146.189 171.026 145.682C170.857 145.089 170.815 144.454 170.899 143.777C170.307 142.846 169.841 141.873 169.503 140.857C169.164 139.842 168.572 138.953 167.726 138.191V137.049C167.726 136.541 167.683 136.076 167.599 135.652C167.599 135.145 167.472 134.721 167.218 134.383C167.049 133.96 166.752 133.706 166.329 133.621C166.244 130.574 165.61 127.485 164.425 124.354C163.325 121.137 162.309 118.048 161.378 115.086C160.701 117.286 160.193 119.529 159.854 121.814C159.516 124.015 159.347 126.258 159.347 128.543V130.701C159.347 131.378 159.431 132.055 159.601 132.732C159.347 133.156 158.966 133.452 158.458 133.621C158.035 133.79 157.781 134.129 157.696 134.637C157.612 135.06 157.569 135.483 157.569 135.906C157.654 136.329 157.654 136.753 157.569 137.176C157.4 139.207 157.146 141.154 156.808 143.016C156.3 145.809 155.707 148.644 155.03 151.521C154.353 154.314 154.015 157.192 154.015 160.154C154.015 160.324 154.015 160.577 154.015 160.916C154.099 161.17 154.142 161.382 154.142 161.551C152.787 162.736 152.068 164.217 151.983 165.994C151.899 167.771 151.687 169.464 151.349 171.072C150.925 173.442 150.418 175.812 149.825 178.182C149.233 180.467 148.725 182.837 148.302 185.291C148.048 186.645 147.836 187.999 147.667 189.354C147.498 190.623 147.328 191.935 147.159 193.289C147.075 194.051 146.778 194.686 146.271 195.193C145.847 195.701 145.551 196.294 145.382 196.971C145.297 197.563 145.255 198.24 145.255 199.002C145.34 199.679 145.382 200.314 145.382 200.906C145.382 201.922 145.297 202.895 145.128 203.826C144.959 204.673 144.451 205.434 143.604 206.111C143.774 208.312 144.155 210.174 144.747 211.697C145.34 213.305 146.017 215.083 146.778 217.029H149.952V217.537C149.952 218.383 150.079 219.145 150.333 219.822C150.672 220.499 151.306 220.796 152.237 220.711C152.153 221.049 152.11 221.473 152.11 221.98C152.11 222.742 152.237 223.419 152.491 224.012C152.83 224.689 153.084 225.408 153.253 226.17C151.56 228.963 149.741 231.036 147.794 232.391C145.847 233.745 143.181 234.422 139.796 234.422H137.765C137.341 233.068 136.834 231.756 136.241 230.486C135.649 229.217 135.056 227.947 134.464 226.678C133.956 225.408 133.491 224.096 133.067 222.742C132.729 221.473 132.56 220.118 132.56 218.68C132.56 218.341 132.602 218.003 132.687 217.664C132.771 217.41 132.813 217.114 132.813 216.775C132.813 216.352 132.644 216.098 132.306 216.014C131.967 215.929 131.798 215.506 131.798 214.744C131.798 214.152 131.756 213.602 131.671 213.094C131.671 212.586 131.671 212.036 131.671 211.443C131.671 208.65 131.882 205.9 132.306 203.191C132.729 200.398 133.025 197.605 133.194 194.812C133.618 194.389 133.829 193.839 133.829 193.162C133.829 192.485 134.041 191.935 134.464 191.512V190.623C134.464 189.1 134.633 187.576 134.972 186.053C135.31 184.529 135.691 183.048 136.114 181.609C136.537 180.171 136.918 178.689 137.257 177.166C137.595 175.643 137.765 174.119 137.765 172.596V170.564C137.765 169.972 138.019 169.718 138.526 169.803C139.119 169.803 139.457 169.464 139.542 168.787C139.711 167.602 139.796 166.46 139.796 165.359C139.881 164.174 140.007 162.99 140.177 161.805C140.6 159.52 141.065 157.234 141.573 154.949C142.081 152.579 142.335 150.21 142.335 147.84V147.459C142.335 147.205 142.547 146.697 142.97 145.936C143.393 145.089 143.604 144.285 143.604 143.523C143.604 142.931 143.478 142.381 143.224 141.873C143.308 141.958 143.478 142 143.731 142C144.07 142 144.282 141.915 144.366 141.746C144.535 141.492 144.747 141.281 145.001 141.111C144.747 140.773 144.62 140.434 144.62 140.096C144.62 139.673 144.662 139.292 144.747 138.953C144.916 138.53 145.001 138.107 145.001 137.684C145.001 137.091 144.705 136.668 144.112 136.414C145.128 134.552 145.847 132.563 146.271 130.447C146.778 128.331 147.117 126.173 147.286 123.973C147.54 121.772 147.752 119.572 147.921 117.371C148.09 115.086 148.471 112.928 149.063 110.896C148.894 110.389 148.767 109.839 148.683 109.246C148.683 108.654 148.683 108.104 148.683 107.596C148.683 107.257 148.64 106.919 148.556 106.58C148.471 106.157 148.513 105.776 148.683 105.438C148.683 105.268 148.725 105.057 148.81 104.803L149.063 104.041C149.233 103.449 149.317 102.856 149.317 102.264C149.402 101.587 149.487 100.91 149.571 100.232C149.741 98.2858 149.783 96.2969 149.698 94.2656C149.698 92.2344 149.783 90.2031 149.952 88.1719C149.698 87.8333 149.444 87.5794 149.19 87.4102C148.937 87.1562 148.767 86.8177 148.683 86.3945C149.36 85.2096 150.079 84.1094 150.841 83.0938C151.687 81.9935 152.787 81.1471 154.142 80.5547C154.396 81.4857 155.073 81.9512 156.173 81.9512C156.681 81.9512 157.315 81.8242 158.077 81.5703C158.839 81.3164 159.347 80.9779 159.601 80.5547C161.039 81.0625 162.478 81.3164 163.917 81.3164C165.44 81.2318 166.837 81.5703 168.106 82.332C168.36 83.6016 168.699 84.9134 169.122 86.2676C169.545 87.6217 170.138 88.849 170.899 89.9492C171.069 91.0495 171.238 92.4036 171.407 94.0117C171.576 95.5352 171.746 97.1432 171.915 98.8359C172.084 100.444 172.338 102.01 172.677 103.533C173.015 104.972 173.481 106.115 174.073 106.961C174.158 108.484 174.412 110.008 174.835 111.531C175.258 113.055 175.724 114.536 176.231 115.975C176.739 117.329 177.162 118.598 177.501 119.783C177.924 120.968 178.136 121.941 178.136 122.703C178.136 123.38 178.009 123.846 177.755 124.1C177.586 124.269 177.416 124.607 177.247 125.115C177.586 126.046 178.051 126.85 178.644 127.527C179.236 128.12 179.871 128.839 180.548 129.686C181.817 134.51 183.468 139.207 185.499 143.777C187.53 148.348 189.985 152.749 192.862 156.98C193.624 157.065 194.216 157.277 194.64 157.615C195.147 157.954 195.909 158.038 196.925 157.869V158.758C196.925 159.604 197.094 160.197 197.433 160.535C198.194 161.043 199.083 161.297 200.099 161.297C201.199 161.297 202.045 161.001 202.638 160.408C203.315 159.731 203.95 158.969 204.542 158.123C205.134 157.277 205.727 156.473 206.319 155.711C206.912 154.949 207.716 154.441 208.731 154.188V153.934C208.731 153.257 208.858 152.706 209.112 152.283C209.451 151.775 209.62 151.225 209.62 150.633C210.551 149.956 211.271 149.109 211.778 148.094C212.286 147.078 212.752 146.062 213.175 145.047C213.598 143.947 214.063 142.931 214.571 142C215.164 141.069 215.925 140.307 216.856 139.715C218.041 136.076 219.48 132.69 221.173 129.559C222.866 126.427 224.643 123.253 226.505 120.037C226.505 119.783 226.463 119.529 226.378 119.275C226.293 118.937 226.251 118.641 226.251 118.387C226.251 118.302 226.336 117.921 226.505 117.244C226.928 116.398 227.309 115.594 227.647 114.832C227.986 114.07 228.282 113.224 228.536 112.293C229.382 109.669 230.144 107.088 230.821 104.549C231.583 102.01 232.683 99.5977 234.122 97.3125V94.1387C235.646 91.0918 236.703 87.8757 237.296 84.4902C237.973 81.1048 238.777 77.804 239.708 74.5879C239.877 73.6569 240.174 72.7259 240.597 71.7949C241.104 70.7793 241.697 70.0599 242.374 69.6367C242.12 69.1289 241.993 68.6211 241.993 68.1133C241.993 67.4362 242.078 66.8438 242.247 66.3359C242.501 65.7435 242.713 65.151 242.882 64.5586C242.628 63.9661 242.501 63.2044 242.501 62.2734C242.501 61.0885 242.84 59.9883 243.517 58.9727C244.194 57.8724 245.209 57.153 246.563 56.8145C247.41 57.0684 248.129 57.4915 248.722 58.084C249.314 58.6764 249.864 59.3112 250.372 59.9883C250.965 60.5807 251.557 61.0885 252.149 61.5117C252.826 61.8503 253.673 61.9349 254.688 61.7656C255.366 63.0352 255.831 64.3893 256.085 65.8281C256.339 67.1823 256.466 68.5788 256.466 70.0176C256.466 71.9642 256.297 73.9954 255.958 76.1113C255.619 78.1426 255.493 80.2161 255.577 82.332C254.9 83.6862 254.392 85.1673 254.054 86.7754C253.8 88.2988 253.546 89.8646 253.292 91.4727C253.038 93.0807 252.742 94.6465 252.403 96.1699C252.065 97.6934 251.472 99.1322 250.626 100.486C250.372 104.295 250.076 108.019 249.737 111.658C249.483 115.298 249.06 118.937 248.468 122.576L247.325 129.812C247.156 130.405 246.987 131.082 246.817 131.844C246.648 132.521 246.563 133.113 246.563 133.621C246.563 134.129 246.606 134.679 246.69 135.271C246.775 135.779 247.029 136.16 247.452 136.414C246.86 137.26 246.437 138.276 246.183 139.461C245.929 140.646 245.675 141.915 245.421 143.27L244.786 147.205C244.617 148.475 244.278 149.617 243.771 150.633V152.029C243.771 155.415 243.178 158.885 241.993 162.439V163.074C241.993 163.497 241.951 163.878 241.866 164.217C241.866 164.471 241.866 164.809 241.866 165.232C241.866 165.825 242.035 166.29 242.374 166.629C241.697 168.829 241.062 171.115 240.47 173.484C239.877 175.77 239.454 178.139 239.2 180.594C238.946 183.895 238.904 187.28 239.073 190.75C239.243 194.135 238.819 197.436 237.804 200.652C238.312 202.176 238.65 203.826 238.819 205.604L239.327 210.936C239.496 212.713 239.75 214.406 240.089 216.014C240.512 217.706 241.274 219.103 242.374 220.203C242.459 220.372 242.501 220.626 242.501 220.965C242.501 221.642 242.332 222.15 241.993 222.488C242.162 223.335 242.459 224.054 242.882 224.646C243.305 225.239 243.728 225.789 244.151 226.297C244.575 226.889 244.913 227.524 245.167 228.201C245.506 228.878 245.675 229.725 245.675 230.74C246.352 231.671 247.41 232.391 248.849 232.898C250.287 233.406 251.726 233.914 253.165 234.422C254.688 234.93 256 235.564 257.101 236.326C258.201 237.173 258.751 238.357 258.751 239.881Z" fill="url(#paint1_linear_64_106)"/>
</g>
</g>
<defs>
<filter id="filter0_bd_64_106" x="-69.1904" y="-31.1855" width="415.941" height="364.525" filterUnits="userSpaceOnUse" color-interpolation-filters="sRGB">
<feFlood flood-opacity="0" result="BackgroundImageFix"/>
<feGaussianBlur in="BackgroundImageFix" stdDeviation="44"/>
<feComposite in2="SourceAlpha" operator="in" result="effect1_backgroundBlur_64_106"/>
<feColorMatrix in="SourceAlpha" type="matrix" values="0 0 0 0 0 0 0 0 0 0 0 0 0 0 0 0 0 0 127 0" result="hardAlpha"/>
<feOffset dy="4"/>
<feGaussianBlur stdDeviation="2"/>
<feComposite in2="hardAlpha" operator="out"/>
<feColorMatrix type="matrix" values="0 0 0 0 0 0 0 0 0 0 0 0 0 0 0 0 0 0 0.25 0"/>
<feBlend mode="normal" in2="effect1_backgroundBlur_64_106" result="effect2_dropShadow_64_106"/>
<feBlend mode="normal" in="SourceGraphic" in2="effect2_dropShadow_64_106" result="shape"/>
</filter>
<linearGradient id="paint0_linear_64_106" x1="150.137" y1="0.781738" x2="150.137" y2="304.905" gradientUnits="userSpaceOnUse">
<stop stop-color="#27AEE8"/>
<stop offset="0.5" stop-color="#113B50"/>
<stop offset="1" stop-color="#153F5A"/>
<stop offset="1" stop-color="#1A86CC"/>
</linearGradient>
<linearGradient id="paint1_linear_64_106" x1="157.13" y1="-1" x2="157.13" y2="371" gradientUnits="userSpaceOnUse">
<stop stop-color="#4FBBEA"/>
<stop offset="0.510417" stop-color="#0E445B"/>
<stop offset="1" stop-color="#1E1E1E"/>
</linearGradient>
<clipPath id="clip0_64_106">
<rect width="300" height="305" rx="150" fill="white"/>
</clipPath>
</defs>
</svg>
