<svg width="802" height="66" viewBox="0 0 802 66" fill="none" xmlns="http://www.w3.org/2000/svg">
<path d="M62.5 10.5L71.5 19.5V21H70.5H68H60.5L59 22.5H23L19.5 24.5L18.5 26.5V31.5L17 34L14.5 35.5H8.5L5 37.5L1 40.5V42.5L2 45L5 48L6.5 49.5H8.5L10.5 48L12.5 45H14.5H17L18.5 48H19.5L23 46L26 45H29.5L34 44L37.5 42.5H41.5H47L52.5 40.5H56.5L88 39L131.5 37.5H144.5V40.5H136.5L131.5 42.5L127 44L123 46H118L108 49.5L104 50.5L95 54L93.5 57L95 60.5L97.5 62.5L102 64.5H107L112.5 62.5L119.5 61.5L126 60.5L134.5 58.5L143 56L149.5 54L154.5 53L161 50.5L176.5 48H189L199 46H210.5L233 45L245 44L282.5 42.5L348 41.5L389.5 42.5H419.5H442H484.5H513H526L542 44.5H563H587H609.5L626.5 46.5L642.5 48.5L654 51L659.5 53L666.5 55H672L678.5 53H683.5L691.5 52L697 51L712.5 49.5L720 46.5L739.5 44.5H754H767H776.5H788L790 43V40V37.5L788 35.5V34L787 31.5L788 30.5L791.5 31.5L794.5 34H799L800.5 31.5V28.5V25.5V22.5L799 19.5L797 17L794.5 15H791.5H788H784.5H782" stroke="white" stroke-width="2"/>
<path d="M782.5 15H778H772H761.5L752 13L741.5 11L727 9H715H687L681 6L659.5 4.5H642.5L603 3H548H524.5H496H467.5H449L430.5 1H397.5H363H316H290L269 2H254L235 3H212.5L188 4.5H164L157.5 5.5L149 7H135.5L119 8.5H97.5L93.5 10H79.5H69.5H62" stroke="white" stroke-width="2"/>
</svg>
