<svg width="78" height="79" viewBox="0 0 78 79" fill="none" xmlns="http://www.w3.org/2000/svg">
<path d="M74.5 39.5C74.5 59.4244 58.5642 75.5 39 75.5C19.4358 75.5 3.5 59.4244 3.5 39.5C3.5 19.5756 19.4358 3.5 39 3.5C58.5642 3.5 74.5 19.5756 74.5 39.5Z" stroke="url(#paint0_linear_3_442)" stroke-width="7"/>
<g filter="url(#filter0_bd_3_442)">
<path d="M40.9938 24.0801C40.8375 24.1777 40.6715 24.2363 40.4957 24.2559C40.3199 24.2754 40.1344 24.3047 39.9391 24.3438C39.7633 24.3633 39.5973 24.4023 39.441 24.4609C39.2848 24.5195 39.1676 24.627 39.0895 24.7832C38.8942 24.5879 38.6793 24.4219 38.4449 24.2852C38.2106 24.1484 37.9762 24.002 37.7418 23.8457C37.5465 23.9043 37.3512 23.9824 37.1559 24.0801C36.9606 24.1777 36.7653 24.2266 36.5699 24.2266C36.4332 24.2266 36.2965 24.1777 36.1598 24.0801C36.0035 24.1973 35.818 24.2949 35.6031 24.373C35.4078 24.4316 35.193 24.4902 34.9586 24.5488C34.7438 24.6074 34.5387 24.6855 34.3434 24.7832C34.1676 24.8809 34.0406 25.0273 33.9625 25.2227C33.9235 25.125 33.8258 25.0957 33.6696 25.1348C33.5328 25.1738 33.4547 25.125 33.4352 24.9883C32.8102 25.2031 32.1754 25.3887 31.5309 25.5449C30.8864 25.7012 30.2418 25.8672 29.5973 26.043C28.9528 26.2188 28.318 26.4141 27.693 26.6289C27.068 26.8438 26.4625 27.1074 25.8766 27.4199C25.8571 27.4395 25.8473 27.4688 25.8473 27.5078C25.8473 27.7031 25.8766 27.8887 25.9352 28.0645C25.9938 28.2402 26.0426 28.4062 26.0817 28.5625C25.7301 29.7539 25.4957 30.9648 25.3785 32.1953C25.2614 33.4258 25.1051 34.6367 24.9098 35.8281V35.9453C24.9098 36.043 24.9489 36.1211 25.027 36.1797C25.1051 36.2188 25.1442 36.2969 25.1442 36.4141L25.1149 36.4727C25.0172 36.5312 24.9489 36.6191 24.9098 36.7363C24.8707 36.834 24.8512 36.9414 24.8512 37.0586C24.8512 37.1367 24.8707 37.2539 24.9098 37.4102C24.5778 38.5234 24.3531 39.6562 24.236 40.8086C24.1383 41.9609 24.0114 43.1133 23.8551 44.2656L23.5914 46.1992C23.5524 46.3164 23.5133 46.4336 23.4742 46.5508C23.4547 46.6484 23.4449 46.7559 23.4449 46.873C23.4449 47.498 23.484 48.1133 23.5621 48.7188C23.6598 49.3047 23.6891 49.9102 23.65 50.5352C23.8258 50.8086 23.9137 51.0723 23.9137 51.3262C23.9137 51.4238 23.9039 51.5215 23.8844 51.6191C23.8844 51.7168 23.8746 51.8145 23.8551 51.9121C24.109 52.166 24.402 52.3418 24.734 52.4395C25.0856 52.5566 25.3981 52.7324 25.6715 52.9668V53.084C25.6715 53.2793 25.6422 53.4648 25.5836 53.6406C25.525 53.8359 25.4762 54.0312 25.4371 54.2266C25.3981 54.3828 25.3492 54.6074 25.2906 54.9004C25.2516 55.1934 25.193 55.3887 25.1149 55.4863C25.0172 55.623 24.8707 55.7402 24.6754 55.8379C24.4996 55.9551 24.3239 56.0137 24.1481 56.0137C24.0895 56.0137 24.0016 55.9844 23.8844 55.9258C23.7867 55.8672 23.7086 55.8184 23.65 55.7793C23.5524 55.7793 23.4254 55.8281 23.2692 55.9258C23.1129 56.0234 22.9567 56.0723 22.8004 56.0723C22.7223 56.0723 22.6539 56.0625 22.5953 56.043C22.5367 56.043 22.4684 56.0234 22.3903 55.9844C22.3121 55.7891 22.1949 55.6133 22.0387 55.457C21.902 55.3203 21.736 55.1836 21.5406 55.0469C21.5602 54.7734 21.5114 54.5684 21.3942 54.4316C21.277 54.2949 21.1598 54.1191 21.0426 53.9043C21.0035 53.6309 20.9645 53.3184 20.9254 52.9668C20.9059 52.6152 20.7594 52.3613 20.486 52.2051C20.5836 52.0684 20.6324 51.8828 20.6324 51.6484C20.6324 51.5508 20.6129 51.4434 20.5739 51.3262C20.5543 51.209 20.4957 51.1211 20.3981 51.0625V51.0039C20.3785 50.9062 20.4078 50.8379 20.486 50.7988C20.5836 50.7402 20.6324 50.6621 20.6324 50.5645V50.4473C20.4957 49.8223 20.4274 49.168 20.4274 48.4844C20.4274 47.8398 20.4469 47.2051 20.486 46.5801C20.525 45.9355 20.525 45.291 20.486 44.6465C20.6031 44.5488 20.691 44.3926 20.7496 44.1777C20.8278 43.9629 20.8864 43.7285 20.9254 43.4746C20.9645 43.2207 20.984 42.9766 20.984 42.7422C21.0035 42.4883 21.0231 42.2832 21.0426 42.127C21.1403 41.0137 21.2965 39.9199 21.5114 38.8457C21.7262 37.752 21.8531 36.6387 21.8922 35.5059C21.9899 35.3496 22.0485 35.1445 22.068 34.8906C22.0875 34.6367 22.0973 34.373 22.0973 34.0996C22.0973 33.8066 22.1168 33.5234 22.1559 33.25C22.1949 32.9766 22.2731 32.7422 22.3903 32.5469C22.3903 32 22.4391 31.4531 22.5367 30.9062C22.6344 30.3398 22.6832 29.7734 22.6832 29.207C22.6832 28.9336 22.6539 28.6504 22.5953 28.3574C22.4 28.2793 22.2242 28.2402 22.068 28.2402C21.8531 28.2402 21.6285 28.2891 21.3942 28.3867C21.1793 28.4648 21.0231 28.5918 20.9254 28.7676C20.4957 28.7871 20.0758 28.8555 19.6656 28.9727C19.2555 29.0898 18.8453 29.1484 18.4352 29.1484H18.1422C18.0641 29.1484 17.9762 29.1387 17.8785 29.1191C17.7418 29.1777 17.5953 29.2266 17.4391 29.2656C17.3024 29.3047 17.2438 29.4219 17.2633 29.6172C16.6578 29.6758 16.0621 29.8027 15.4762 29.998C14.9098 30.1934 14.3434 30.4082 13.777 30.6426C13.2106 30.8574 12.6442 31.0625 12.0778 31.2578C11.4918 31.4531 10.8961 31.5801 10.2906 31.6387C10.0758 31.7363 9.93909 31.9414 9.88049 32.2539C9.45081 32.2148 9.08948 32.1074 8.79651 31.9316C8.50354 31.7559 8.16174 31.5898 7.77112 31.4336C7.65393 31.0234 7.59534 30.6328 7.59534 30.2617C7.59534 29.7734 7.69299 29.3047 7.88831 28.8555C8.08362 28.4062 8.39612 28.0742 8.82581 27.8594C8.92346 27.8789 9.01135 27.8984 9.08948 27.918C9.1676 27.918 9.25549 27.918 9.35315 27.918C9.66565 27.918 9.97815 27.8594 10.2906 27.7422C10.6031 27.625 10.9254 27.5664 11.2574 27.5664C11.3551 27.5664 11.4625 27.5957 11.5797 27.6543C11.7164 27.5762 11.8922 27.5176 12.1071 27.4785C12.3024 27.4199 12.4879 27.3711 12.6637 27.332C12.859 27.2734 13.0348 27.1953 13.191 27.0977C13.3473 27 13.4449 26.8633 13.484 26.6875C13.5817 26.7656 13.6891 26.8145 13.8063 26.834C13.9235 26.8535 14.0406 26.8633 14.1578 26.8633C14.4117 26.8633 14.6754 26.8145 14.9489 26.7168C15.2223 26.6191 15.4371 26.4629 15.5934 26.248C15.7301 26.4043 15.9254 26.4824 16.1793 26.4824C16.4528 26.4824 16.7164 26.4141 16.9703 26.2773C17.2438 26.1211 17.5074 26.043 17.7614 26.043C17.9567 26.043 18.1031 26.1113 18.2008 26.248C18.4156 26.0723 18.6696 25.9355 18.9625 25.8379C19.2555 25.7402 19.5485 25.6523 19.8414 25.5742C20.1539 25.4961 20.4371 25.4082 20.691 25.3105C20.9645 25.2129 21.1793 25.0762 21.3356 24.9004C21.4332 24.9199 21.5895 24.9297 21.8043 24.9297C22.1364 24.9297 22.4489 24.8906 22.7418 24.8125C23.0543 24.7148 23.3668 24.627 23.6793 24.5488L24.2946 24.4902C24.4508 24.4707 24.5875 24.4219 24.7047 24.3438C24.8414 24.2656 24.9781 24.1973 25.1149 24.1387C25.2516 24.0801 25.3883 24.0312 25.525 23.9922C25.6813 23.9531 25.8668 23.9434 26.0817 23.9629C26.5504 23.709 27.0485 23.5137 27.5758 23.377C28.1031 23.2402 28.6403 23.123 29.1871 23.0254C29.734 22.9082 30.2711 22.7812 30.7985 22.6445C31.3258 22.4883 31.8239 22.2637 32.2926 21.9707H32.3805C32.7711 21.9707 33.152 21.9023 33.5231 21.7656C33.9137 21.6289 34.275 21.4434 34.6071 21.209C34.6656 21.2285 34.7242 21.2383 34.7828 21.2383H34.9879C35.5348 21.2383 36.0621 21.1602 36.5699 21.0039C37.0973 20.8477 37.6442 20.7695 38.2106 20.7695C38.5426 20.7695 38.8063 20.8184 39.0016 20.916C39.1969 20.9941 39.3727 21.1016 39.5289 21.2383C39.6852 21.3555 39.8512 21.4727 40.027 21.5898C40.2028 21.707 40.4274 21.7949 40.7008 21.8535C40.8766 22.1855 40.9645 22.5469 40.9645 22.9375C40.9645 23.3086 40.9742 23.6895 40.9938 24.0801ZM62.9664 59.5879C62.9664 59.7637 62.8981 59.9199 62.7614 60.0566C62.6442 60.1934 62.4977 60.3008 62.3219 60.3789C62.1461 60.4766 61.9606 60.5645 61.7653 60.6426C61.5895 60.7207 61.4332 60.7891 61.2965 60.8477C61.0817 60.7305 60.8571 60.6523 60.6227 60.6133C60.4078 60.5742 60.2125 60.4766 60.0367 60.3203H59.8317C59.5192 60.3203 59.275 60.3594 59.0992 60.4375C58.8258 60.3398 58.6012 60.1934 58.4254 59.998C58.2496 59.8223 58.0836 59.627 57.9274 59.4121C57.7711 59.2168 57.6149 59.0215 57.4586 58.8262C57.3024 58.6309 57.1071 58.4648 56.8727 58.3281C56.5211 57.3516 56.2086 56.3652 55.9352 55.3691C55.6617 54.373 55.4567 53.3574 55.3199 52.3223C55.359 52.2246 55.3883 52.1172 55.4078 52C55.4274 51.8828 55.4371 51.7754 55.4371 51.6777C55.4371 51.5996 55.4176 51.5215 55.3785 51.4434C55.359 51.3457 55.3004 51.2871 55.2028 51.2676C55.3004 51.1113 55.359 50.9355 55.3785 50.7402C55.4176 50.5254 55.4371 50.3301 55.4371 50.1543C55.4371 49.7637 55.3981 49.4414 55.3199 49.1875C55.4371 49.0898 55.486 48.9336 55.4664 48.7188C55.4469 48.4844 55.4957 48.3184 55.6129 48.2207C55.5153 47.8887 55.4664 47.5664 55.4664 47.2539C55.4664 46.8242 55.5153 46.4043 55.6129 45.9941C55.7301 45.584 55.7887 45.1641 55.7887 44.7344C55.7887 44.6367 55.7789 44.5391 55.7594 44.4414C55.7594 44.3438 55.7496 44.2461 55.7301 44.1484C55.8278 43.8359 55.9156 43.5234 55.9938 43.2109C56.0914 42.8789 56.1403 42.5469 56.1403 42.2148C56.1403 41.9805 56.1012 41.7852 56.0231 41.6289C56.277 40.7305 56.4528 39.8418 56.5504 38.9629C56.6676 38.0645 56.775 37.1562 56.8727 36.2383C56.8531 36.1992 56.8336 36.1699 56.8141 36.1504C56.7946 36.1309 56.7848 36.1016 56.7848 36.0625C56.7848 35.9648 56.8336 35.8867 56.9313 35.8281C57.0485 35.7695 57.0973 35.6621 57.0778 35.5059C56.8434 35.7402 56.6481 36.0137 56.4918 36.3262C56.3551 36.6387 56.2184 36.9512 56.0817 37.2637C55.9645 37.5762 55.8278 37.8887 55.6715 38.2012C55.5348 38.4941 55.3492 38.7578 55.1149 38.9922C55.0953 39.207 55.027 39.4121 54.9098 39.6074C54.8121 39.8027 54.7633 40.0176 54.7633 40.252C54.7438 40.252 54.7242 40.252 54.7047 40.252C54.6852 40.2324 54.6559 40.2227 54.6168 40.2227C54.5387 40.2227 54.4801 40.2715 54.441 40.3691C54.4215 40.4668 54.3629 40.4961 54.2653 40.457C53.816 41.3359 53.318 42.1953 52.7711 43.0352C52.2438 43.875 51.5504 44.5488 50.691 45.0566C50.5348 44.998 50.3883 44.9688 50.2516 44.9688C49.9977 44.9688 49.7438 45.0469 49.4899 45.2031C49.2555 45.3398 49.0992 45.4082 49.0211 45.4082C48.8258 45.4082 48.5817 45.3105 48.2887 45.1152C48.0153 44.9004 47.7321 44.7832 47.4391 44.7637C47.1266 44.5488 46.8629 44.334 46.6481 44.1191C46.4528 43.8848 46.15 43.748 45.7399 43.709C45.4664 43.2988 45.193 42.9082 44.9196 42.5371C44.6656 42.166 44.4117 41.8047 44.1578 41.4531C43.9235 41.082 43.7086 40.6914 43.5133 40.2812C43.3375 39.8711 43.2008 39.4121 43.1031 38.9043C43.1227 38.8652 43.1324 38.8262 43.1324 38.7871C43.1324 38.6699 43.0739 38.6211 42.9567 38.6406C42.859 38.6602 42.8102 38.6016 42.8102 38.4648V38.2598C42.8102 38.1035 42.7809 37.9668 42.7223 37.8496C42.6832 37.7129 42.6735 37.5664 42.693 37.4102C42.5563 37.1953 42.4489 36.9707 42.3707 36.7363C42.2926 36.502 42.1559 36.2969 41.9606 36.1211V35.8574C41.9606 35.7402 41.9508 35.6328 41.9313 35.5352C41.9313 35.418 41.902 35.3203 41.8434 35.2422C41.8043 35.1445 41.736 35.0859 41.6383 35.0664C41.6188 34.3633 41.4723 33.6504 41.1989 32.9277C40.9449 32.1855 40.7106 31.4727 40.4957 30.7891C40.3395 31.2969 40.2223 31.8145 40.1442 32.3418C40.066 32.8496 40.027 33.3672 40.027 33.8945V34.3926C40.027 34.5488 40.0465 34.7051 40.0856 34.8613C40.027 34.959 39.9391 35.0273 39.8219 35.0664C39.7242 35.1055 39.6656 35.1836 39.6461 35.3008C39.6266 35.3984 39.6168 35.4961 39.6168 35.5938C39.6364 35.6914 39.6364 35.7891 39.6168 35.8867C39.5778 36.3555 39.5192 36.8047 39.441 37.2344C39.3239 37.8789 39.1871 38.5332 39.0309 39.1973C38.8746 39.8418 38.7965 40.5059 38.7965 41.1895C38.7965 41.2285 38.7965 41.2871 38.7965 41.3652C38.816 41.4238 38.8258 41.4727 38.8258 41.5117C38.5133 41.7852 38.3473 42.127 38.3278 42.5371C38.3082 42.9473 38.2594 43.3379 38.1813 43.709C38.0836 44.2559 37.9664 44.8027 37.8297 45.3496C37.693 45.877 37.5758 46.4238 37.4781 46.9902C37.4196 47.3027 37.3707 47.6152 37.3317 47.9277C37.2926 48.2207 37.2535 48.5234 37.2145 48.8359C37.1949 49.0117 37.1266 49.1582 37.0094 49.2754C36.9117 49.3926 36.8434 49.5293 36.8043 49.6855C36.7848 49.8223 36.775 49.9785 36.775 50.1543C36.7946 50.3105 36.8043 50.457 36.8043 50.5938C36.8043 50.8281 36.7848 51.0527 36.7457 51.2676C36.7067 51.4629 36.5895 51.6387 36.3942 51.7949C36.4332 52.3027 36.5211 52.7324 36.6578 53.084C36.7946 53.4551 36.9508 53.8652 37.1266 54.3145H37.859V54.4316C37.859 54.627 37.8883 54.8027 37.9469 54.959C38.025 55.1152 38.1715 55.1836 38.3864 55.1641C38.3668 55.2422 38.3571 55.3398 38.3571 55.457C38.3571 55.6328 38.3864 55.7891 38.4449 55.9258C38.5231 56.082 38.5817 56.248 38.6207 56.4238C38.2301 57.0684 37.8102 57.5469 37.361 57.8594C36.9117 58.1719 36.2965 58.3281 35.5153 58.3281H35.0465C34.9489 58.0156 34.8317 57.7129 34.6949 57.4199C34.5582 57.127 34.4215 56.834 34.2848 56.541C34.1676 56.248 34.0602 55.9453 33.9625 55.6328C33.8844 55.3398 33.8453 55.0273 33.8453 54.6953C33.8453 54.6172 33.8551 54.5391 33.8746 54.4609C33.8942 54.4023 33.9039 54.334 33.9039 54.2559C33.9039 54.1582 33.8649 54.0996 33.7867 54.0801C33.7086 54.0605 33.6696 53.9629 33.6696 53.7871C33.6696 53.6504 33.6598 53.5234 33.6403 53.4062C33.6403 53.2891 33.6403 53.1621 33.6403 53.0254C33.6403 52.3809 33.6891 51.7461 33.7867 51.1211C33.8844 50.4766 33.9528 49.832 33.9918 49.1875C34.0895 49.0898 34.1383 48.9629 34.1383 48.8066C34.1383 48.6504 34.1871 48.5234 34.2848 48.4258V48.2207C34.2848 47.8691 34.3239 47.5176 34.402 47.166C34.4801 46.8145 34.568 46.4727 34.6656 46.1406C34.7633 45.8086 34.8512 45.4668 34.9293 45.1152C35.0074 44.7637 35.0465 44.4121 35.0465 44.0605V43.5918C35.0465 43.4551 35.1051 43.3965 35.2223 43.416C35.359 43.416 35.4371 43.3379 35.4567 43.1816C35.4957 42.9082 35.5153 42.6445 35.5153 42.3906C35.5348 42.1172 35.5641 41.8438 35.6031 41.5703C35.7008 41.043 35.8082 40.5156 35.9254 39.9883C36.0426 39.4414 36.1012 38.8945 36.1012 38.3477V38.2598C36.1012 38.2012 36.15 38.084 36.2477 37.9082C36.3453 37.7129 36.3942 37.5273 36.3942 37.3516C36.3942 37.2148 36.3649 37.0879 36.3063 36.9707C36.3258 36.9902 36.3649 37 36.4235 37C36.5016 37 36.5504 36.9805 36.5699 36.9414C36.609 36.8828 36.6578 36.834 36.7164 36.7949C36.6578 36.7168 36.6285 36.6387 36.6285 36.5605C36.6285 36.4629 36.6383 36.375 36.6578 36.2969C36.6969 36.1992 36.7164 36.1016 36.7164 36.0039C36.7164 35.8672 36.6481 35.7695 36.5114 35.7109C36.7457 35.2812 36.9117 34.8223 37.0094 34.334C37.1266 33.8457 37.2047 33.3477 37.2438 32.8398C37.3024 32.332 37.3512 31.8242 37.3903 31.3164C37.4293 30.7891 37.5172 30.291 37.6539 29.8223C37.6149 29.7051 37.5856 29.5781 37.566 29.4414C37.566 29.3047 37.566 29.1777 37.566 29.0605C37.566 28.9824 37.5563 28.9043 37.5367 28.8262C37.5172 28.7285 37.527 28.6406 37.566 28.5625C37.566 28.5234 37.5758 28.4746 37.5953 28.416L37.6539 28.2402C37.693 28.1035 37.7125 27.9668 37.7125 27.8301C37.7321 27.6738 37.7516 27.5176 37.7711 27.3613C37.8102 26.9121 37.8199 26.4531 37.8004 25.9844C37.8004 25.5156 37.8199 25.0469 37.859 24.5781C37.8004 24.5 37.7418 24.4414 37.6832 24.4023C37.6246 24.3438 37.5856 24.2656 37.566 24.168C37.7223 23.8945 37.8883 23.6406 38.0641 23.4062C38.2594 23.1523 38.5133 22.957 38.8258 22.8203C38.8844 23.0352 39.0406 23.1426 39.2946 23.1426C39.4117 23.1426 39.5582 23.1133 39.734 23.0547C39.9098 22.9961 40.027 22.918 40.0856 22.8203C40.4176 22.9375 40.7496 22.9961 41.0817 22.9961C41.4332 22.9766 41.7555 23.0547 42.0485 23.2305C42.1071 23.5234 42.1852 23.8262 42.2828 24.1387C42.3805 24.4512 42.5172 24.7344 42.693 24.9883C42.7321 25.2422 42.7711 25.5547 42.8102 25.9258C42.8492 26.2773 42.8883 26.6484 42.9274 27.0391C42.9664 27.4102 43.025 27.7715 43.1031 28.123C43.1813 28.4551 43.2887 28.7188 43.4254 28.9141C43.4449 29.2656 43.5035 29.6172 43.6012 29.9688C43.6989 30.3203 43.8063 30.6621 43.9235 30.9941C44.0406 31.3066 44.1383 31.5996 44.2164 31.873C44.3141 32.1465 44.3629 32.3711 44.3629 32.5469C44.3629 32.7031 44.3336 32.8105 44.275 32.8691C44.236 32.9082 44.1969 32.9863 44.1578 33.1035C44.236 33.3184 44.3434 33.5039 44.4801 33.6602C44.6168 33.7969 44.7633 33.9629 44.9196 34.1582C45.2125 35.2715 45.5934 36.3555 46.0621 37.4102C46.5309 38.4648 47.0973 39.4805 47.7614 40.457C47.9371 40.4766 48.0739 40.5254 48.1715 40.6035C48.2887 40.6816 48.4645 40.7012 48.6989 40.6621V40.8672C48.6989 41.0625 48.7379 41.1992 48.816 41.2773C48.9918 41.3945 49.1969 41.4531 49.4313 41.4531C49.6852 41.4531 49.8805 41.3848 50.0172 41.248C50.1735 41.0918 50.3199 40.916 50.4567 40.7207C50.5934 40.5254 50.7301 40.3398 50.8668 40.1641C51.0035 39.9883 51.1891 39.8711 51.4235 39.8125V39.7539C51.4235 39.5977 51.4528 39.4707 51.5114 39.373C51.5895 39.2559 51.6285 39.1289 51.6285 38.9922C51.8434 38.8359 52.0094 38.6406 52.1266 38.4062C52.2438 38.1719 52.3512 37.9375 52.4489 37.7031C52.5465 37.4492 52.6539 37.2148 52.7711 37C52.9078 36.7852 53.0836 36.6094 53.2985 36.4727C53.5719 35.6328 53.9039 34.8516 54.2946 34.1289C54.6852 33.4062 55.0953 32.6738 55.525 31.9316C55.525 31.873 55.5153 31.8145 55.4957 31.7559C55.4762 31.6777 55.4664 31.6094 55.4664 31.5508C55.4664 31.5312 55.486 31.4434 55.525 31.2871C55.6227 31.0918 55.7106 30.9062 55.7887 30.7305C55.8668 30.5547 55.9352 30.3594 55.9938 30.1445C56.1891 29.5391 56.3649 28.9434 56.5211 28.3574C56.6969 27.7715 56.9508 27.2148 57.2828 26.6875V25.9551C57.6344 25.252 57.8785 24.5098 58.0153 23.7285C58.1715 22.9473 58.3571 22.1855 58.5719 21.4434C58.611 21.2285 58.6793 21.0137 58.777 20.7988C58.8942 20.5645 59.0309 20.3984 59.1871 20.3008C59.1285 20.1836 59.0992 20.0664 59.0992 19.9492C59.0992 19.793 59.1188 19.6562 59.1578 19.5391C59.2164 19.4023 59.2653 19.2656 59.3043 19.1289C59.2457 18.9922 59.2164 18.8164 59.2164 18.6016C59.2164 18.3281 59.2946 18.0742 59.4508 17.8398C59.6071 17.5859 59.8414 17.4199 60.1539 17.3418C60.3492 17.4004 60.5153 17.498 60.652 17.6348C60.7887 17.7715 60.9156 17.918 61.0328 18.0742C61.1696 18.2109 61.3063 18.3281 61.443 18.4258C61.5992 18.5039 61.7946 18.5234 62.0289 18.4844C62.1852 18.7773 62.2926 19.0898 62.3512 19.4219C62.4098 19.7344 62.4391 20.0566 62.4391 20.3887C62.4391 20.8379 62.4 21.3066 62.3219 21.7949C62.2438 22.2637 62.2145 22.7422 62.234 23.2305C62.0778 23.543 61.9606 23.8848 61.8824 24.2559C61.8239 24.6074 61.7653 24.9688 61.7067 25.3398C61.6481 25.7109 61.5797 26.0723 61.5016 26.4238C61.4235 26.7754 61.2867 27.1074 61.0914 27.4199C61.0328 28.2988 60.9645 29.1582 60.8864 29.998C60.8278 30.8379 60.7301 31.6777 60.5934 32.5176L60.3297 34.1875C60.2906 34.3242 60.2516 34.4805 60.2125 34.6562C60.1735 34.8125 60.1539 34.9492 60.1539 35.0664C60.1539 35.1836 60.1637 35.3105 60.1832 35.4473C60.2028 35.5645 60.2614 35.6523 60.359 35.7109C60.2223 35.9062 60.1246 36.1406 60.066 36.4141C60.0074 36.6875 59.9489 36.9805 59.8903 37.293L59.7438 38.2012C59.7047 38.4941 59.6266 38.7578 59.5094 38.9922V39.3145C59.5094 40.0957 59.3727 40.8965 59.0992 41.7168V41.8633C59.0992 41.9609 59.0895 42.0488 59.0699 42.127C59.0699 42.1855 59.0699 42.2637 59.0699 42.3613C59.0699 42.498 59.109 42.6055 59.1871 42.6836C59.0309 43.1914 58.8844 43.7188 58.7477 44.2656C58.611 44.793 58.5133 45.3398 58.4547 45.9062C58.3961 46.668 58.3864 47.4492 58.4254 48.25C58.4645 49.0312 58.3668 49.793 58.1324 50.5352C58.2496 50.8867 58.3278 51.2676 58.3668 51.6777L58.484 52.9082C58.5231 53.3184 58.5817 53.709 58.6598 54.0801C58.7574 54.4707 58.9332 54.793 59.1871 55.0469C59.2067 55.0859 59.2164 55.1445 59.2164 55.2227C59.2164 55.3789 59.1774 55.4961 59.0992 55.5742C59.1383 55.7695 59.2067 55.9355 59.3043 56.0723C59.402 56.209 59.4996 56.3359 59.5973 56.4531C59.6949 56.5898 59.7731 56.7363 59.8317 56.8926C59.9098 57.0488 59.9489 57.2441 59.9489 57.4785C60.1051 57.6934 60.3492 57.8594 60.6813 57.9766C61.0133 58.0938 61.3453 58.2109 61.6774 58.3281C62.0289 58.4453 62.3317 58.5918 62.5856 58.7676C62.8395 58.9629 62.9664 59.2363 62.9664 59.5879Z" fill="url(#paint1_linear_3_442)"/>
</g>
<defs>
<filter id="filter0_bd_3_442" x="-80.4047" y="-70.6582" width="231.371" height="219.506" filterUnits="userSpaceOnUse" color-interpolation-filters="sRGB">
<feFlood flood-opacity="0" result="BackgroundImageFix"/>
<feGaussianBlur in="BackgroundImageFix" stdDeviation="44"/>
<feComposite in2="SourceAlpha" operator="in" result="effect1_backgroundBlur_3_442"/>
<feColorMatrix in="SourceAlpha" type="matrix" values="0 0 0 0 0 0 0 0 0 0 0 0 0 0 0 0 0 0 127 0" result="hardAlpha"/>
<feOffset dy="4"/>
<feGaussianBlur stdDeviation="2"/>
<feComposite in2="hardAlpha" operator="out"/>
<feColorMatrix type="matrix" values="0 0 0 0 0 0 0 0 0 0 0 0 0 0 0 0 0 0 0.25 0"/>
<feBlend mode="normal" in2="effect1_backgroundBlur_3_442" result="effect2_dropShadow_3_442"/>
<feBlend mode="normal" in="SourceGraphic" in2="effect2_dropShadow_3_442" result="shape"/>
</filter>
<linearGradient id="paint0_linear_3_442" x1="39" y1="0" x2="39" y2="79" gradientUnits="userSpaceOnUse">
<stop stop-color="#27AEE8"/>
<stop offset="0.5" stop-color="#113B50"/>
<stop offset="1" stop-color="#153F5A"/>
<stop offset="1" stop-color="#1A86CC"/>
</linearGradient>
<linearGradient id="paint1_linear_3_442" x1="38.4" y1="4" x2="38.4" y2="76" gradientUnits="userSpaceOnUse">
<stop stop-color="#4FBBEA"/>
<stop offset="0.510417" stop-color="#0E445B"/>
<stop offset="1" stop-color="#1E1E1E"/>
</linearGradient>
</defs>
</svg>
